# xmcd CD database file
#
# Track frame offsets:
#	150
#	14285
#	26715
#	37877
#	50027
#	63660
#	74040
#	86672
#	97775
#	117432
#	129080
#	139097
#	153620
#	169560
#	181870
#	199337
#	212265
#	224915
#
# Disc length: 3383 seconds
#
# Revision: 2
# Processed by: cddbd v1.5.2PL0 Copyright (c) Steve Scherf et al.
# Submitted via: CDex 1.51
#
DISCID=060d3512
DTITLE=Koko Taylor - What It Takes (The Chess Years)
DYEAR=1991
DGENRE=Blues
TTITLE0=I Got What It Takes
TTITLE1=Don´t Mess With The Messer
TTITLE2=Whatever I Am, You Made Me
TTITLE3=I´m A Little Mixed Up
TTITLE4=Wang Dang Doodle
TTITLE5=(I Got) All You Need
TTITLE6=Love Me
TTITLE7=What Came First The Egg Or The Hen
TTITLE8=Insane Asylum
TTITLE9=Fire
TTITLE10=I Don´t Care Who Knows
TTITLE11=Twenty Nine Ways (To My Baby´s Door)
TTITLE12=Blue Prelude
TTITLE13=I Need More And More
TTITLE14=Um Huh My Baby
TTITLE15=Bills, Bills and More Bills
TTITLE16=Let Me Love You Baby
TTITLE17=I Got What It Takes (live duet with Muddy Waters)
EXTD=YEAR: 1991
EXTT0=
EXTT1=
EXTT2=
EXTT3=
EXTT4=
EXTT5=
EXTT6=
EXTT7=
EXTT8=
EXTT9=
EXTT10=
EXTT11=
EXTT12=
EXTT13=
EXTT14=
EXTT15=
EXTT16=
EXTT17=
PLAYORDER=
